<?xml version="1.0" encoding="UTF-8" standalone="no"?>
<!DOCTYPE svg PUBLIC "-//W3C//DTD SVG 1.1//EN"
 "http://www.w3.org/Graphics/SVG/1.1/DTD/svg11.dtd">
<!-- Generated by graphviz version 3.0.0 (0)
 -->
<!-- Title: system 1 Pages: 1 -->
<svg width="278pt" height="332pt"
 viewBox="0.00 0.00 278.00 332.00" xmlns="http://www.w3.org/2000/svg" xmlns:xlink="http://www.w3.org/1999/xlink">
<g id="graph0" class="graph" transform="scale(1 1) rotate(0) translate(4 328)">
<title>system 1</title>
<polygon fill="white" stroke="transparent" points="-4,4 -4,-328 274,-328 274,4 -4,4"/>
<!-- x1 -->
<g id="node1" class="node">
<title>x1</title>
<ellipse fill="none" stroke="black" cx="27" cy="-306" rx="27" ry="18"/>
<text text-anchor="start" x="20" y="-303.3" font-family="Times,serif" font-size="14.00">x</text>
<text text-anchor="start" x="27" y="-303.3" font-family="Times,serif" baseline-shift="sub" font-size="14.00">1</text>
</g>
<!-- f2 -->
<g id="node8" class="node">
<title>f2</title>
<ellipse fill="none" stroke="black" cx="135" cy="-234" rx="27" ry="18"/>
<text text-anchor="start" x="129" y="-231.3" font-family="Times,serif" font-size="14.00">f</text>
<text text-anchor="start" x="134" y="-231.3" font-family="Times,serif" baseline-shift="sub" font-size="14.00">2</text>
</g>
<!-- x1&#45;&gt;f2 -->
<g id="edge1" class="edge">
<title>x1&#45;&gt;f2</title>
<path fill="none" stroke="black" d="M45.81,-292.81C63,-281.67 88.62,-265.06 107.99,-252.5"/>
<polygon fill="black" stroke="black" points="109.92,-255.43 116.4,-247.05 106.11,-249.56 109.92,-255.43"/>
</g>
<!-- x2 -->
<g id="node2" class="node">
<title>x2</title>
<ellipse fill="none" stroke="black" cx="135" cy="-162" rx="27" ry="18"/>
<text text-anchor="start" x="128" y="-159.3" font-family="Times,serif" font-size="14.00">x</text>
<text text-anchor="start" x="135" y="-159.3" font-family="Times,serif" baseline-shift="sub" font-size="14.00">2</text>
</g>
<!-- x2&#45;&gt;f2 -->
<g id="edge2" class="edge">
<title>x2&#45;&gt;f2</title>
<path fill="none" stroke="black" d="M140.88,-179.96C141.71,-187.83 141.95,-197.37 141.58,-206.19"/>
<polygon fill="black" stroke="black" points="138.07,-206.18 140.84,-216.41 145.06,-206.69 138.07,-206.18"/>
</g>
<!-- g2 -->
<g id="node9" class="node">
<title>g2</title>
<ellipse fill="none" stroke="black" cx="171" cy="-90" rx="27" ry="18"/>
<text text-anchor="start" x="164" y="-87.3" font-family="Times,serif" font-size="14.00">g</text>
<text text-anchor="start" x="171" y="-87.3" font-family="Times,serif" baseline-shift="sub" font-size="14.00">2</text>
</g>
<!-- x2&#45;&gt;g2 -->
<g id="edge7" class="edge">
<title>x2&#45;&gt;g2</title>
<path fill="none" stroke="black" d="M143.35,-144.76C147.71,-136.28 153.15,-125.71 158.04,-116.2"/>
<polygon fill="black" stroke="black" points="161.23,-117.64 162.7,-107.15 155.01,-114.44 161.23,-117.64"/>
</g>
<!-- r2 -->
<g id="node3" class="node">
<title>r2</title>
<ellipse fill="none" stroke="black" cx="99" cy="-306" rx="27" ry="18"/>
<text text-anchor="start" x="93" y="-303.3" font-family="Times,serif" font-size="14.00">r</text>
<text text-anchor="start" x="98" y="-303.3" font-family="Times,serif" baseline-shift="sub" font-size="14.00">2</text>
</g>
<!-- r2&#45;&gt;f2 -->
<g id="edge3" class="edge">
<title>r2&#45;&gt;f2</title>
<path fill="none" stroke="black" d="M107.35,-288.76C111.71,-280.28 117.15,-269.71 122.04,-260.2"/>
<polygon fill="black" stroke="black" points="125.23,-261.64 126.7,-251.15 119.01,-258.44 125.23,-261.64"/>
</g>
<!-- c2 -->
<g id="node4" class="node">
<title>c2</title>
<ellipse fill="none" stroke="black" cx="171" cy="-306" rx="27" ry="18"/>
<text text-anchor="start" x="164" y="-303.3" font-family="Times,serif" font-size="14.00">c</text>
<text text-anchor="start" x="171" y="-303.3" font-family="Times,serif" baseline-shift="sub" font-size="14.00">2</text>
</g>
<!-- c2&#45;&gt;f2 -->
<g id="edge5" class="edge">
<title>c2&#45;&gt;f2</title>
<path fill="none" stroke="black" d="M162.65,-288.76C158.29,-280.28 152.85,-269.71 147.96,-260.2"/>
<polygon fill="black" stroke="black" points="150.99,-258.44 143.3,-251.15 144.77,-261.64 150.99,-258.44"/>
</g>
<!-- s2 -->
<g id="node5" class="node">
<title>s2</title>
<ellipse fill="none" stroke="black" cx="207" cy="-162" rx="27" ry="18"/>
<text text-anchor="start" x="200.5" y="-159.3" font-family="Times,serif" font-size="14.00">s</text>
<text text-anchor="start" x="206.5" y="-159.3" font-family="Times,serif" baseline-shift="sub" font-size="14.00">2</text>
</g>
<!-- s2&#45;&gt;g2 -->
<g id="edge8" class="edge">
<title>s2&#45;&gt;g2</title>
<path fill="none" stroke="black" d="M198.65,-144.76C194.29,-136.28 188.85,-125.71 183.96,-116.2"/>
<polygon fill="black" stroke="black" points="186.99,-114.44 179.3,-107.15 180.77,-117.64 186.99,-114.44"/>
</g>
<!-- dt -->
<g id="node6" class="node">
<title>dt</title>
<ellipse fill="none" stroke="black" cx="243" cy="-306" rx="27" ry="18"/>
<text text-anchor="middle" x="243" y="-302.3" font-family="Times,serif" font-size="14.00">dt</text>
</g>
<!-- dt&#45;&gt;f2 -->
<g id="edge4" class="edge">
<title>dt&#45;&gt;f2</title>
<path fill="none" stroke="black" d="M224.19,-292.81C207,-281.67 181.38,-265.06 162.01,-252.5"/>
<polygon fill="black" stroke="black" points="163.89,-249.56 153.6,-247.05 160.08,-255.43 163.89,-249.56"/>
</g>
<!-- y2 -->
<g id="node7" class="node">
<title>y2</title>
<ellipse fill="none" stroke="black" cx="171" cy="-18" rx="27" ry="18"/>
<text text-anchor="start" x="164" y="-15.3" font-family="Times,serif" font-size="14.00">y</text>
<text text-anchor="start" x="171" y="-15.3" font-family="Times,serif" baseline-shift="sub" font-size="14.00">2</text>
</g>
<!-- f2&#45;&gt;x2 -->
<g id="edge6" class="edge">
<title>f2&#45;&gt;x2</title>
<path fill="none" stroke="red" d="M129.16,-216.41C128.3,-208.51 128.05,-198.85 128.41,-189.94"/>
<polygon fill="red" stroke="red" points="131.9,-190.18 129.12,-179.96 124.92,-189.68 131.9,-190.18"/>
</g>
<!-- g2&#45;&gt;y2 -->
<g id="edge9" class="edge">
<title>g2&#45;&gt;y2</title>
<path fill="none" stroke="black" d="M171,-71.7C171,-63.98 171,-54.71 171,-46.11"/>
<polygon fill="black" stroke="black" points="174.5,-46.1 171,-36.1 167.5,-46.1 174.5,-46.1"/>
</g>
</g>
</svg>
