<?xml version="1.0" encoding="UTF-8" standalone="no"?>
<!DOCTYPE svg PUBLIC "-//W3C//DTD SVG 1.1//EN"
 "http://www.w3.org/Graphics/SVG/1.1/DTD/svg11.dtd">
<!-- Generated by graphviz version 3.0.0 (0)
 -->
<!-- Title: system 1 Pages: 1 -->
<svg width="278pt" height="188pt"
 viewBox="0.00 0.00 278.00 188.00" xmlns="http://www.w3.org/2000/svg" xmlns:xlink="http://www.w3.org/1999/xlink">
<g id="graph0" class="graph" transform="scale(1 1) rotate(0) translate(4 184)">
<title>system 1</title>
<polygon fill="white" stroke="transparent" points="-4,4 -4,-184 274,-184 274,4 -4,4"/>
<!-- x1 -->
<g id="node1" class="node">
<title>x1</title>
<ellipse fill="none" stroke="black" cx="171" cy="-162" rx="27" ry="18"/>
<text text-anchor="start" x="164" y="-159.3" font-family="Times,serif" font-size="14.00">x</text>
<text text-anchor="start" x="171" y="-159.3" font-family="Times,serif" baseline-shift="sub" font-size="14.00">1</text>
</g>
<!-- f1 -->
<g id="node6" class="node">
<title>f1</title>
<ellipse fill="none" stroke="black" cx="99" cy="-90" rx="27" ry="18"/>
<text text-anchor="start" x="93" y="-87.3" font-family="Times,serif" font-size="14.00">f</text>
<text text-anchor="start" x="98" y="-87.3" font-family="Times,serif" baseline-shift="sub" font-size="14.00">1</text>
</g>
<!-- x1&#45;&gt;f1 -->
<g id="edge1" class="edge">
<title>x1&#45;&gt;f1</title>
<path fill="none" stroke="black" d="M152.81,-148.49C141.66,-139.03 127.66,-125.77 116.63,-114.37"/>
<polygon fill="black" stroke="black" points="118.95,-111.72 109.54,-106.85 113.85,-116.52 118.95,-111.72"/>
</g>
<!-- g1 -->
<g id="node7" class="node">
<title>g1</title>
<ellipse fill="none" stroke="black" cx="207" cy="-90" rx="27" ry="18"/>
<text text-anchor="start" x="200" y="-87.3" font-family="Times,serif" font-size="14.00">g</text>
<text text-anchor="start" x="207" y="-87.3" font-family="Times,serif" baseline-shift="sub" font-size="14.00">1</text>
</g>
<!-- x1&#45;&gt;g1 -->
<g id="edge5" class="edge">
<title>x1&#45;&gt;g1</title>
<path fill="none" stroke="black" d="M179.35,-144.76C183.71,-136.28 189.15,-125.71 194.04,-116.2"/>
<polygon fill="black" stroke="black" points="197.23,-117.64 198.7,-107.15 191.01,-114.44 197.23,-117.64"/>
</g>
<!-- r1 -->
<g id="node2" class="node">
<title>r1</title>
<ellipse fill="none" stroke="black" cx="27" cy="-162" rx="27" ry="18"/>
<text text-anchor="start" x="21" y="-159.3" font-family="Times,serif" font-size="14.00">r</text>
<text text-anchor="start" x="26" y="-159.3" font-family="Times,serif" baseline-shift="sub" font-size="14.00">1</text>
</g>
<!-- r1&#45;&gt;f1 -->
<g id="edge2" class="edge">
<title>r1&#45;&gt;f1</title>
<path fill="none" stroke="black" d="M41.57,-146.83C51.75,-136.94 65.52,-123.55 77.03,-112.36"/>
<polygon fill="black" stroke="black" points="79.47,-114.87 84.2,-105.38 74.59,-109.85 79.47,-114.87"/>
</g>
<!-- s1 -->
<g id="node3" class="node">
<title>s1</title>
<ellipse fill="none" stroke="black" cx="243" cy="-162" rx="27" ry="18"/>
<text text-anchor="start" x="236.5" y="-159.3" font-family="Times,serif" font-size="14.00">s</text>
<text text-anchor="start" x="242.5" y="-159.3" font-family="Times,serif" baseline-shift="sub" font-size="14.00">1</text>
</g>
<!-- s1&#45;&gt;g1 -->
<g id="edge6" class="edge">
<title>s1&#45;&gt;g1</title>
<path fill="none" stroke="black" d="M234.65,-144.76C230.29,-136.28 224.85,-125.71 219.96,-116.2"/>
<polygon fill="black" stroke="black" points="222.99,-114.44 215.3,-107.15 216.77,-117.64 222.99,-114.44"/>
</g>
<!-- dt -->
<g id="node4" class="node">
<title>dt</title>
<ellipse fill="none" stroke="black" cx="99" cy="-162" rx="27" ry="18"/>
<text text-anchor="middle" x="99" y="-158.3" font-family="Times,serif" font-size="14.00">dt</text>
</g>
<!-- dt&#45;&gt;f1 -->
<g id="edge3" class="edge">
<title>dt&#45;&gt;f1</title>
<path fill="none" stroke="black" d="M99,-143.7C99,-135.98 99,-126.71 99,-118.11"/>
<polygon fill="black" stroke="black" points="102.5,-118.1 99,-108.1 95.5,-118.1 102.5,-118.1"/>
</g>
<!-- y1 -->
<g id="node5" class="node">
<title>y1</title>
<ellipse fill="none" stroke="black" cx="207" cy="-18" rx="27" ry="18"/>
<text text-anchor="start" x="200" y="-15.3" font-family="Times,serif" font-size="14.00">y</text>
<text text-anchor="start" x="207" y="-15.3" font-family="Times,serif" baseline-shift="sub" font-size="14.00">1</text>
</g>
<!-- f1&#45;&gt;x1 -->
<g id="edge4" class="edge">
<title>f1&#45;&gt;x1</title>
<path fill="none" stroke="red" d="M117.24,-103.56C128.38,-113.01 142.34,-126.23 153.34,-137.6"/>
<polygon fill="red" stroke="red" points="151.02,-140.24 160.42,-145.12 156.11,-135.44 151.02,-140.24"/>
</g>
<!-- g1&#45;&gt;y1 -->
<g id="edge7" class="edge">
<title>g1&#45;&gt;y1</title>
<path fill="none" stroke="black" d="M207,-71.7C207,-63.98 207,-54.71 207,-46.11"/>
<polygon fill="black" stroke="black" points="210.5,-46.1 207,-36.1 203.5,-46.1 210.5,-46.1"/>
</g>
</g>
</svg>
