<?xml version="1.0" encoding="UTF-8" standalone="no"?>
<!DOCTYPE svg PUBLIC "-//W3C//DTD SVG 1.1//EN"
 "http://www.w3.org/Graphics/SVG/1.1/DTD/svg11.dtd">
<!-- Generated by graphviz version 3.0.0 (0)
 -->
<!-- Title: Transition Pages: 1 -->
<svg width="206pt" height="116pt"
 viewBox="0.00 0.00 206.00 116.00" xmlns="http://www.w3.org/2000/svg" xmlns:xlink="http://www.w3.org/1999/xlink">
<g id="graph0" class="graph" transform="scale(1 1) rotate(0) translate(4 112)">
<title>Transition</title>
<polygon fill="white" stroke="transparent" points="-4,4 -4,-112 202,-112 202,4 -4,4"/>
<!-- x -->
<g id="node1" class="node">
<title>x</title>
<ellipse fill="none" stroke="black" cx="27" cy="-90" rx="27" ry="18"/>
<text text-anchor="middle" x="27" y="-86.3" font-family="Times,serif" font-size="14.00">x</text>
</g>
<!-- f -->
<g id="node4" class="node">
<title>f</title>
<ellipse fill="none" stroke="black" cx="63" cy="-18" rx="27" ry="18"/>
<text text-anchor="middle" x="63" y="-14.3" font-family="Times,serif" font-size="14.00">f</text>
</g>
<!-- x&#45;&gt;f -->
<g id="edge1" class="edge">
<title>x&#45;&gt;f</title>
<path fill="none" stroke="black" d="M29.84,-72.05C33.44,-63.22 38.89,-52.28 44.42,-42.63"/>
<polygon fill="black" stroke="black" points="47.53,-44.26 49.7,-33.89 41.54,-40.64 47.53,-44.26"/>
</g>
<!-- r -->
<g id="node2" class="node">
<title>r</title>
<ellipse fill="none" stroke="black" cx="99" cy="-90" rx="27" ry="18"/>
<text text-anchor="middle" x="99" y="-86.3" font-family="Times,serif" font-size="14.00">r</text>
</g>
<!-- r&#45;&gt;f -->
<g id="edge2" class="edge">
<title>r&#45;&gt;f</title>
<path fill="none" stroke="black" d="M90.65,-72.76C86.29,-64.28 80.85,-53.71 75.96,-44.2"/>
<polygon fill="black" stroke="black" points="78.99,-42.44 71.3,-35.15 72.77,-45.64 78.99,-42.44"/>
</g>
<!-- dt -->
<g id="node3" class="node">
<title>dt</title>
<ellipse fill="none" stroke="black" cx="171" cy="-90" rx="27" ry="18"/>
<text text-anchor="middle" x="171" y="-86.3" font-family="Times,serif" font-size="14.00">dt</text>
</g>
<!-- dt&#45;&gt;f -->
<g id="edge3" class="edge">
<title>dt&#45;&gt;f</title>
<path fill="none" stroke="black" d="M152.19,-76.81C135,-65.67 109.38,-49.06 90.01,-36.5"/>
<polygon fill="black" stroke="black" points="91.89,-33.56 81.6,-31.05 88.08,-39.43 91.89,-33.56"/>
</g>
<!-- f&#45;&gt;x -->
<g id="edge4" class="edge">
<title>f&#45;&gt;x</title>
<path fill="none" stroke="red" d="M60.12,-36.04C56.51,-44.87 51.07,-55.8 45.54,-65.43"/>
<polygon fill="red" stroke="red" points="42.45,-63.79 40.27,-74.15 48.44,-67.4 42.45,-63.79"/>
</g>
</g>
</svg>
