<?xml version="1.0" encoding="UTF-8" standalone="no"?>
<!DOCTYPE svg PUBLIC "-//W3C//DTD SVG 1.1//EN"
 "http://www.w3.org/Graphics/SVG/1.1/DTD/svg11.dtd">
<!-- Generated by graphviz version 3.0.0 (0)
 -->
<!-- Title: Fucntion Pages: 1 -->
<svg width="85pt" height="188pt"
 viewBox="0.00 0.00 84.69 188.00" xmlns="http://www.w3.org/2000/svg" xmlns:xlink="http://www.w3.org/1999/xlink">
<g id="graph0" class="graph" transform="scale(1 1) rotate(0) translate(4 184)">
<title>Fucntion</title>
<polygon fill="white" stroke="transparent" points="-4,4 -4,-184 80.69,-184 80.69,4 -4,4"/>
<!-- node_in -->
<g id="node1" class="node">
<title>node_in</title>
<ellipse fill="none" stroke="black" cx="38.35" cy="-162" rx="34.39" ry="18"/>
<text text-anchor="start" x="19.85" y="-159.3" font-family="Times,serif" font-size="14.00">node</text>
<text text-anchor="start" x="46.85" y="-159.3" font-family="Times,serif" baseline-shift="sub" font-size="14.00">in</text>
</g>
<!-- f -->
<g id="node3" class="node">
<title>f</title>
<ellipse fill="none" stroke="black" cx="38.35" cy="-90" rx="27" ry="18"/>
<text text-anchor="middle" x="38.35" y="-86.3" font-family="Times,serif" font-size="14.00">f</text>
</g>
<!-- node_in&#45;&gt;f -->
<g id="edge1" class="edge">
<title>node_in&#45;&gt;f</title>
<path fill="none" stroke="black" d="M38.35,-143.7C38.35,-135.98 38.35,-126.71 38.35,-118.11"/>
<polygon fill="black" stroke="black" points="41.85,-118.1 38.35,-108.1 34.85,-118.1 41.85,-118.1"/>
</g>
<!-- node_out -->
<g id="node2" class="node">
<title>node_out</title>
<ellipse fill="none" stroke="black" cx="38.35" cy="-18" rx="38.19" ry="18"/>
<text text-anchor="start" x="16.85" y="-15.3" font-family="Times,serif" font-size="14.00">node</text>
<text text-anchor="start" x="43.85" y="-15.3" font-family="Times,serif" baseline-shift="sub" font-size="14.00">out</text>
</g>
<!-- f&#45;&gt;node_out -->
<g id="edge2" class="edge">
<title>f&#45;&gt;node_out</title>
<path fill="none" stroke="black" d="M38.35,-71.7C38.35,-63.98 38.35,-54.71 38.35,-46.11"/>
<polygon fill="black" stroke="black" points="41.85,-46.1 38.35,-36.1 34.85,-46.1 41.85,-46.1"/>
</g>
</g>
</svg>
