<?xml version="1.0" encoding="UTF-8" standalone="no"?>
<!DOCTYPE svg PUBLIC "-//W3C//DTD SVG 1.1//EN"
 "http://www.w3.org/Graphics/SVG/1.1/DTD/svg11.dtd">
<!-- Generated by graphviz version 3.0.0 (0)
 -->
<!-- Title: Function Pages: 1 -->
<svg width="134pt" height="188pt"
 viewBox="0.00 0.00 134.00 188.00" xmlns="http://www.w3.org/2000/svg" xmlns:xlink="http://www.w3.org/1999/xlink">
<g id="graph0" class="graph" transform="scale(1 1) rotate(0) translate(4 184)">
<title>Function</title>
<polygon fill="white" stroke="transparent" points="-4,4 -4,-184 130,-184 130,4 -4,4"/>
<!-- n1 -->
<g id="node1" class="node">
<title>n1</title>
<ellipse fill="none" stroke="black" cx="27" cy="-162" rx="27" ry="18"/>
<text text-anchor="start" x="20" y="-159.3" font-family="Times,serif" font-size="14.00">n</text>
<text text-anchor="start" x="27" y="-159.3" font-family="Times,serif" baseline-shift="sub" font-size="14.00">1</text>
</g>
<!-- g -->
<g id="node4" class="node">
<title>g</title>
<ellipse fill="none" stroke="black" cx="63" cy="-90" rx="27" ry="18"/>
<text text-anchor="middle" x="63" y="-86.3" font-family="Times,serif" font-size="14.00">g</text>
</g>
<!-- n1&#45;&gt;g -->
<g id="edge1" class="edge">
<title>n1&#45;&gt;g</title>
<path fill="none" stroke="black" d="M35.35,-144.76C39.71,-136.28 45.15,-125.71 50.04,-116.2"/>
<polygon fill="black" stroke="black" points="53.23,-117.64 54.7,-107.15 47.01,-114.44 53.23,-117.64"/>
</g>
<!-- n2 -->
<g id="node2" class="node">
<title>n2</title>
<ellipse fill="none" stroke="black" cx="99" cy="-162" rx="27" ry="18"/>
<text text-anchor="start" x="92" y="-159.3" font-family="Times,serif" font-size="14.00">n</text>
<text text-anchor="start" x="99" y="-159.3" font-family="Times,serif" baseline-shift="sub" font-size="14.00">2</text>
</g>
<!-- n2&#45;&gt;g -->
<g id="edge2" class="edge">
<title>n2&#45;&gt;g</title>
<path fill="none" stroke="black" d="M90.65,-144.76C86.29,-136.28 80.85,-125.71 75.96,-116.2"/>
<polygon fill="black" stroke="black" points="78.99,-114.44 71.3,-107.15 72.77,-117.64 78.99,-114.44"/>
</g>
<!-- n3 -->
<g id="node3" class="node">
<title>n3</title>
<ellipse fill="none" stroke="black" cx="63" cy="-18" rx="27" ry="18"/>
<text text-anchor="start" x="56" y="-15.3" font-family="Times,serif" font-size="14.00">n</text>
<text text-anchor="start" x="63" y="-15.3" font-family="Times,serif" baseline-shift="sub" font-size="14.00">3</text>
</g>
<!-- g&#45;&gt;n3 -->
<g id="edge3" class="edge">
<title>g&#45;&gt;n3</title>
<path fill="none" stroke="black" d="M63,-71.7C63,-63.98 63,-54.71 63,-46.11"/>
<polygon fill="black" stroke="black" points="66.5,-46.1 63,-36.1 59.5,-46.1 66.5,-46.1"/>
</g>
</g>
</svg>
