<?xml version="1.0" encoding="UTF-8" standalone="no"?>
<!DOCTYPE svg PUBLIC "-//W3C//DTD SVG 1.1//EN"
 "http://www.w3.org/Graphics/SVG/1.1/DTD/svg11.dtd">
<!-- Generated by graphviz version 3.0.0 (0)
 -->
<!-- Title: Transition Pages: 1 -->
<svg width="206pt" height="188pt"
 viewBox="0.00 0.00 206.00 188.00" xmlns="http://www.w3.org/2000/svg" xmlns:xlink="http://www.w3.org/1999/xlink">
<g id="graph0" class="graph" transform="scale(1 1) rotate(0) translate(4 184)">
<title>Transition</title>
<polygon fill="white" stroke="transparent" points="-4,4 -4,-184 202,-184 202,4 -4,4"/>
<!-- x1 -->
<g id="node1" class="node">
<title>x1</title>
<ellipse fill="none" stroke="black" cx="27" cy="-162" rx="27" ry="18"/>
<text text-anchor="start" x="20" y="-159.3" font-family="Times,serif" font-size="14.00">x</text>
<text text-anchor="start" x="27" y="-159.3" font-family="Times,serif" baseline-shift="sub" font-size="14.00">1</text>
</g>
<!-- g -->
<g id="node5" class="node">
<title>g</title>
<ellipse fill="none" stroke="black" cx="63" cy="-90" rx="27" ry="18"/>
<text text-anchor="middle" x="63" y="-86.3" font-family="Times,serif" font-size="14.00">g</text>
</g>
<!-- x1&#45;&gt;g -->
<g id="edge1" class="edge">
<title>x1&#45;&gt;g</title>
<path fill="none" stroke="black" d="M29.84,-144.05C33.44,-135.22 38.89,-124.28 44.42,-114.63"/>
<polygon fill="black" stroke="black" points="47.53,-116.26 49.7,-105.89 41.54,-112.64 47.53,-116.26"/>
</g>
<!-- x2 -->
<g id="node2" class="node">
<title>x2</title>
<ellipse fill="none" stroke="black" cx="63" cy="-18" rx="27" ry="18"/>
<text text-anchor="start" x="56" y="-15.3" font-family="Times,serif" font-size="14.00">x</text>
<text text-anchor="start" x="63" y="-15.3" font-family="Times,serif" baseline-shift="sub" font-size="14.00">2</text>
</g>
<!-- x2&#45;&gt;g -->
<g id="edge2" class="edge">
<title>x2&#45;&gt;g</title>
<path fill="none" stroke="black" d="M68.88,-35.96C69.71,-43.83 69.95,-53.37 69.58,-62.19"/>
<polygon fill="black" stroke="black" points="66.07,-62.18 68.84,-72.41 73.06,-62.69 66.07,-62.18"/>
</g>
<!-- r -->
<g id="node3" class="node">
<title>r</title>
<ellipse fill="none" stroke="black" cx="99" cy="-162" rx="27" ry="18"/>
<text text-anchor="middle" x="99" y="-158.3" font-family="Times,serif" font-size="14.00">r</text>
</g>
<!-- r&#45;&gt;g -->
<g id="edge3" class="edge">
<title>r&#45;&gt;g</title>
<path fill="none" stroke="black" d="M90.65,-144.76C86.29,-136.28 80.85,-125.71 75.96,-116.2"/>
<polygon fill="black" stroke="black" points="78.99,-114.44 71.3,-107.15 72.77,-117.64 78.99,-114.44"/>
</g>
<!-- dt -->
<g id="node4" class="node">
<title>dt</title>
<ellipse fill="none" stroke="black" cx="171" cy="-162" rx="27" ry="18"/>
<text text-anchor="middle" x="171" y="-158.3" font-family="Times,serif" font-size="14.00">dt</text>
</g>
<!-- dt&#45;&gt;g -->
<g id="edge4" class="edge">
<title>dt&#45;&gt;g</title>
<path fill="none" stroke="black" d="M152.19,-148.81C135,-137.67 109.38,-121.06 90.01,-108.5"/>
<polygon fill="black" stroke="black" points="91.89,-105.56 81.6,-103.05 88.08,-111.43 91.89,-105.56"/>
</g>
<!-- g&#45;&gt;x1 -->
<g id="edge5" class="edge">
<title>g&#45;&gt;x1</title>
<path fill="none" stroke="red" d="M60.12,-108.04C56.51,-116.87 51.07,-127.8 45.54,-137.43"/>
<polygon fill="red" stroke="red" points="42.45,-135.79 40.27,-146.15 48.44,-139.4 42.45,-135.79"/>
</g>
<!-- g&#45;&gt;x2 -->
<g id="edge6" class="edge">
<title>g&#45;&gt;x2</title>
<path fill="none" stroke="red" d="M57.16,-72.41C56.3,-64.51 56.05,-54.85 56.41,-45.94"/>
<polygon fill="red" stroke="red" points="59.9,-46.18 57.12,-35.96 52.92,-45.68 59.9,-46.18"/>
</g>
</g>
</svg>
