<?xml version="1.0" encoding="UTF-8" standalone="no"?>
<!DOCTYPE svg PUBLIC "-//W3C//DTD SVG 1.1//EN"
 "http://www.w3.org/Graphics/SVG/1.1/DTD/svg11.dtd">
<!-- Generated by graphviz version 3.0.0 (0)
 -->
<!-- Title: system Pages: 1 -->
<svg width="265pt" height="116pt"
 viewBox="0.00 0.00 265.19 116.00" xmlns="http://www.w3.org/2000/svg" xmlns:xlink="http://www.w3.org/1999/xlink">
<g id="graph0" class="graph" transform="scale(1 1) rotate(0) translate(4 112)">
<title>system</title>
<polygon fill="white" stroke="transparent" points="-4,4 -4,-112 261.19,-112 261.19,4 -4,4"/>
<!-- clock -->
<g id="node1" class="node">
<title>clock</title>
<ellipse fill="none" stroke="black" cx="29.9" cy="-90" rx="29.8" ry="18"/>
<text text-anchor="middle" x="29.9" y="-86.3" font-family="Times,serif" font-size="14.00">clock</text>
</g>
<!-- coupled system -->
<g id="node4" class="node">
<title>coupled system</title>
<ellipse fill="none" stroke="black" cx="117.9" cy="-18" rx="65.79" ry="18"/>
<text text-anchor="middle" x="117.9" y="-14.3" font-family="Times,serif" font-size="14.00">coupled system</text>
</g>
<!-- clock&#45;&gt;coupled system -->
<g id="edge1" class="edge">
<title>clock&#45;&gt;coupled system</title>
<path fill="none" stroke="black" d="M47.28,-75.17C59.34,-65.58 75.67,-52.59 89.59,-41.51"/>
<polygon fill="black" stroke="black" points="91.81,-44.22 97.46,-35.26 87.45,-38.74 91.81,-44.22"/>
</g>
<!-- sys1 -->
<g id="node2" class="node">
<title>sys1</title>
<ellipse fill="none" stroke="black" cx="117.9" cy="-90" rx="40.09" ry="18"/>
<text text-anchor="start" x="94.9" y="-87.3" font-family="Times,serif" font-size="14.00">system</text>
<text text-anchor="start" x="133.9" y="-87.3" font-family="Times,serif" baseline-shift="sub" font-size="14.00">1</text>
</g>
<!-- sys1&#45;&gt;coupled system -->
<g id="edge2" class="edge">
<title>sys1&#45;&gt;coupled system</title>
<path fill="none" stroke="black" d="M117.9,-71.7C117.9,-63.98 117.9,-54.71 117.9,-46.11"/>
<polygon fill="black" stroke="black" points="121.4,-46.1 117.9,-36.1 114.4,-46.1 121.4,-46.1"/>
</g>
<!-- sys2 -->
<g id="node3" class="node">
<title>sys2</title>
<ellipse fill="none" stroke="black" cx="216.9" cy="-90" rx="40.09" ry="18"/>
<text text-anchor="start" x="193.9" y="-87.3" font-family="Times,serif" font-size="14.00">system</text>
<text text-anchor="start" x="232.9" y="-87.3" font-family="Times,serif" baseline-shift="sub" font-size="14.00">2</text>
</g>
<!-- sys2&#45;&gt;coupled system -->
<g id="edge3" class="edge">
<title>sys2&#45;&gt;coupled system</title>
<path fill="none" stroke="black" d="M196.38,-74.5C182.62,-64.76 164.24,-51.77 148.73,-40.8"/>
<polygon fill="black" stroke="black" points="150.64,-37.87 140.45,-34.95 146.6,-43.58 150.64,-37.87"/>
</g>
</g>
</svg>
