<?xml version="1.0" encoding="UTF-8" standalone="no"?>
<!DOCTYPE svg PUBLIC "-//W3C//DTD SVG 1.1//EN"
 "http://www.w3.org/Graphics/SVG/1.1/DTD/svg11.dtd">
<!-- Generated by graphviz version 3.0.0 (0)
 -->
<!-- Title: system 1 Pages: 1 -->
<svg width="422pt" height="188pt"
 viewBox="0.00 0.00 422.00 188.00" xmlns="http://www.w3.org/2000/svg" xmlns:xlink="http://www.w3.org/1999/xlink">
<g id="graph0" class="graph" transform="scale(1 1) rotate(0) translate(4 184)">
<title>system 1</title>
<polygon fill="white" stroke="transparent" points="-4,4 -4,-184 418,-184 418,4 -4,4"/>
<!-- x1 -->
<g id="node1" class="node">
<title>x1</title>
<ellipse fill="none" stroke="black" cx="315" cy="-162" rx="27" ry="18"/>
<text text-anchor="start" x="308" y="-159.3" font-family="Times,serif" font-size="14.00">x</text>
<text text-anchor="start" x="315" y="-159.3" font-family="Times,serif" baseline-shift="sub" font-size="14.00">1</text>
</g>
<!-- f1 -->
<g id="node8" class="node">
<title>f1</title>
<ellipse fill="none" stroke="black" cx="207" cy="-90" rx="27" ry="18"/>
<text text-anchor="start" x="201" y="-87.3" font-family="Times,serif" font-size="14.00">f</text>
<text text-anchor="start" x="206" y="-87.3" font-family="Times,serif" baseline-shift="sub" font-size="14.00">1</text>
</g>
<!-- x1&#45;&gt;f1 -->
<g id="edge1" class="edge">
<title>x1&#45;&gt;f1</title>
<path fill="none" stroke="black" d="M293.85,-150.52C275.71,-139.98 249.89,-123.49 231.01,-110.53"/>
<polygon fill="black" stroke="black" points="232.83,-107.54 222.63,-104.68 228.83,-113.28 232.83,-107.54"/>
</g>
<!-- g1 -->
<g id="node9" class="node">
<title>g1</title>
<ellipse fill="none" stroke="black" cx="351" cy="-90" rx="27" ry="18"/>
<text text-anchor="start" x="344" y="-87.3" font-family="Times,serif" font-size="14.00">g</text>
<text text-anchor="start" x="351" y="-87.3" font-family="Times,serif" baseline-shift="sub" font-size="14.00">1</text>
</g>
<!-- x1&#45;&gt;g1 -->
<g id="edge7" class="edge">
<title>x1&#45;&gt;g1</title>
<path fill="none" stroke="black" d="M323.35,-144.76C327.71,-136.28 333.15,-125.71 338.04,-116.2"/>
<polygon fill="black" stroke="black" points="341.23,-117.64 342.7,-107.15 335.01,-114.44 341.23,-117.64"/>
</g>
<!-- x2 -->
<g id="node2" class="node">
<title>x2</title>
<ellipse fill="none" stroke="black" cx="27" cy="-162" rx="27" ry="18"/>
<text text-anchor="start" x="20" y="-159.3" font-family="Times,serif" font-size="14.00">x</text>
<text text-anchor="start" x="27" y="-159.3" font-family="Times,serif" baseline-shift="sub" font-size="14.00">2</text>
</g>
<!-- x2&#45;&gt;f1 -->
<g id="edge4" class="edge">
<title>x2&#45;&gt;f1</title>
<path fill="none" stroke="black" d="M48.18,-150.62C53.01,-148.35 58.16,-146.03 63,-144 100.36,-128.34 144.15,-112.58 173.54,-102.37"/>
<polygon fill="black" stroke="black" points="175,-105.57 183.31,-99 172.71,-98.95 175,-105.57"/>
</g>
<!-- r1 -->
<g id="node3" class="node">
<title>r1</title>
<ellipse fill="none" stroke="black" cx="99" cy="-162" rx="27" ry="18"/>
<text text-anchor="start" x="93" y="-159.3" font-family="Times,serif" font-size="14.00">r</text>
<text text-anchor="start" x="98" y="-159.3" font-family="Times,serif" baseline-shift="sub" font-size="14.00">1</text>
</g>
<!-- r1&#45;&gt;f1 -->
<g id="edge2" class="edge">
<title>r1&#45;&gt;f1</title>
<path fill="none" stroke="black" d="M117.81,-148.81C135,-137.67 160.62,-121.06 179.99,-108.5"/>
<polygon fill="black" stroke="black" points="181.92,-111.43 188.4,-103.05 178.11,-105.56 181.92,-111.43"/>
</g>
<!-- c1 -->
<g id="node4" class="node">
<title>c1</title>
<ellipse fill="none" stroke="black" cx="171" cy="-162" rx="27" ry="18"/>
<text text-anchor="start" x="164" y="-159.3" font-family="Times,serif" font-size="14.00">c</text>
<text text-anchor="start" x="171" y="-159.3" font-family="Times,serif" baseline-shift="sub" font-size="14.00">1</text>
</g>
<!-- c1&#45;&gt;f1 -->
<g id="edge3" class="edge">
<title>c1&#45;&gt;f1</title>
<path fill="none" stroke="black" d="M179.35,-144.76C183.71,-136.28 189.15,-125.71 194.04,-116.2"/>
<polygon fill="black" stroke="black" points="197.23,-117.64 198.7,-107.15 191.01,-114.44 197.23,-117.64"/>
</g>
<!-- s1 -->
<g id="node5" class="node">
<title>s1</title>
<ellipse fill="none" stroke="black" cx="387" cy="-162" rx="27" ry="18"/>
<text text-anchor="start" x="380.5" y="-159.3" font-family="Times,serif" font-size="14.00">s</text>
<text text-anchor="start" x="386.5" y="-159.3" font-family="Times,serif" baseline-shift="sub" font-size="14.00">1</text>
</g>
<!-- s1&#45;&gt;g1 -->
<g id="edge8" class="edge">
<title>s1&#45;&gt;g1</title>
<path fill="none" stroke="black" d="M378.65,-144.76C374.29,-136.28 368.85,-125.71 363.96,-116.2"/>
<polygon fill="black" stroke="black" points="366.99,-114.44 359.3,-107.15 360.77,-117.64 366.99,-114.44"/>
</g>
<!-- dt -->
<g id="node6" class="node">
<title>dt</title>
<ellipse fill="none" stroke="black" cx="243" cy="-162" rx="27" ry="18"/>
<text text-anchor="middle" x="243" y="-158.3" font-family="Times,serif" font-size="14.00">dt</text>
</g>
<!-- dt&#45;&gt;f1 -->
<g id="edge5" class="edge">
<title>dt&#45;&gt;f1</title>
<path fill="none" stroke="black" d="M234.65,-144.76C230.29,-136.28 224.85,-125.71 219.96,-116.2"/>
<polygon fill="black" stroke="black" points="222.99,-114.44 215.3,-107.15 216.77,-117.64 222.99,-114.44"/>
</g>
<!-- y1 -->
<g id="node7" class="node">
<title>y1</title>
<ellipse fill="none" stroke="black" cx="351" cy="-18" rx="27" ry="18"/>
<text text-anchor="start" x="344" y="-15.3" font-family="Times,serif" font-size="14.00">y</text>
<text text-anchor="start" x="351" y="-15.3" font-family="Times,serif" baseline-shift="sub" font-size="14.00">1</text>
</g>
<!-- f1&#45;&gt;x1 -->
<g id="edge6" class="edge">
<title>f1&#45;&gt;x1</title>
<path fill="none" stroke="red" d="M227.99,-101.39C246.06,-111.88 271.85,-128.34 290.76,-141.31"/>
<polygon fill="red" stroke="red" points="288.96,-144.32 299.17,-147.17 292.96,-138.58 288.96,-144.32"/>
</g>
<!-- g1&#45;&gt;y1 -->
<g id="edge9" class="edge">
<title>g1&#45;&gt;y1</title>
<path fill="none" stroke="black" d="M351,-71.7C351,-63.98 351,-54.71 351,-46.11"/>
<polygon fill="black" stroke="black" points="354.5,-46.1 351,-36.1 347.5,-46.1 354.5,-46.1"/>
</g>
</g>
</svg>
